<svg width="150" height="150" viewBox="0 0 150 150" xmlns="http://www.w3.org/2000/svg"><path d="M33.2069 107.273L34.119 106.488L35.8975 108.554L27.9523 115.394L27.082 114.383L34.1151 108.328L33.2069 107.273Z M25.1637 102.153C26.5545 101.242 27.7863 100.759 28.8592 100.703C29.9402 100.642 30.8515 101.177 31.5932 102.309C32.3295 103.433 32.4539 104.479 31.9662 105.445C31.4867 106.407 30.5515 107.343 29.1607 108.254C27.7457 109.181 26.4977 109.675 25.4167 109.736C24.3358 109.797 23.4271 109.266 22.6907 108.142C21.9491 107.01 21.822 105.961 22.3097 104.994C22.7974 104.027 23.7487 103.08 25.1637 102.153ZM28.4456 107.163C29.149 106.702 29.7115 106.264 30.1331 105.849C30.5681 105.437 30.8398 104.987 30.9483 104.5C31.062 104.021 30.9414 103.511 30.5865 102.969C30.2262 102.419 29.8012 102.097 29.3113 102.002C28.8267 101.915 28.306 101.984 27.7492 102.21C27.2058 102.439 26.5823 102.784 25.8789 103.245C25.1512 103.722 24.5698 104.166 24.1349 104.578C23.7052 104.998 23.4335 105.448 23.3197 105.927C23.2113 106.414 23.3372 106.933 23.6974 107.482C24.0523 108.024 24.4721 108.339 24.9567 108.426C25.4466 108.521 25.9673 108.451 26.5188 108.217C27.0756 107.991 27.7178 107.639 28.4456 107.163Z M21.3583 93.6211C22.8822 92.956 24.1777 92.6859 25.2447 92.8109C26.3206 92.932 27.1293 93.6127 27.6706 94.853C28.2081 96.0845 28.1554 97.1359 27.5125 98.0071C26.8785 98.8744 25.7996 99.6406 24.2757 100.306C22.7253 100.982 21.4121 101.26 20.3362 101.139C19.2603 101.018 18.4536 100.342 17.9161 99.1102C17.3748 97.8698 17.4255 96.8141 18.0684 95.9429C18.7113 95.0717 19.8079 94.2977 21.3583 93.6211ZM23.7537 99.1096C24.5245 98.7732 25.1525 98.4359 25.6377 98.0976C26.1356 97.7642 26.4788 97.3666 26.6675 96.9046C26.8599 96.4514 26.8266 95.928 26.5676 95.3344C26.3046 94.732 25.9397 94.3428 25.4727 94.1669C25.0095 93.9999 24.4845 93.9812 23.8977 94.1107C23.3236 94.2453 22.6511 94.4807 21.8803 94.8171C21.083 95.1651 20.4353 95.5058 19.9374 95.8391C19.4434 96.1813 19.1001 96.5789 18.9077 97.0321C18.719 97.4941 18.7562 98.0263 19.0191 98.6288C19.2782 99.2224 19.6393 99.6027 20.1024 99.7697C20.5694 99.9456 21.0944 99.9644 21.6774 99.8259C22.2643 99.6964 22.9564 99.4576 23.7537 99.1096Z M16.954 86.8012C16.443 87.029 16.0846 87.3481 15.8786 87.7586C15.6749 88.1784 15.646 88.679 15.7918 89.2603C15.987 90.0385 16.4352 90.534 17.1364 90.7468C17.8399 90.969 18.9113 90.8896 20.3505 90.5087C19.8792 90.4176 19.464 90.173 19.105 89.7747C18.7554 89.374 18.51 88.8924 18.3689 88.3298C18.2113 87.7016 18.1968 87.1073 18.3253 86.5469C18.4655 85.9935 18.7488 85.5138 19.1752 85.1079C19.6016 84.7019 20.1664 84.4108 20.8696 84.2344C21.8729 83.9827 22.7522 84.0712 23.5074 84.4996C24.2721 84.9257 24.7884 85.6732 25.0565 86.7421C25.3858 88.0548 25.1896 89.0807 24.4681 89.8197C23.7489 90.5682 22.5455 91.1541 20.8578 91.5774C19.6764 91.8737 18.6742 92.0105 17.8512 91.9877C17.0306 91.9743 16.3553 91.765 15.8251 91.3598C15.2973 90.964 14.924 90.33 14.7053 89.4581C14.4654 88.5017 14.5363 87.6916 14.9179 87.0278C15.2996 86.364 15.8795 85.8947 16.6576 85.6198L16.954 86.8012ZM19.5047 88.2692C19.6623 88.8974 19.9839 89.3649 20.4694 89.6716C20.9644 89.976 21.5447 90.0447 22.2104 89.8778C22.9136 89.7014 23.4315 89.3622 23.764 88.8602C24.0965 88.3582 24.1734 87.7509 23.9947 87.0383C23.8301 86.382 23.4921 85.9087 22.9808 85.6184C22.4718 85.3374 21.8798 85.2816 21.2047 85.4509C20.5202 85.6226 20.0199 85.9524 19.7038 86.4403C19.3877 86.9282 19.3213 87.5378 19.5047 88.2692Z M13.001 73.145C13.0178 72.2075 13.2505 71.356 13.6993 70.5906C14.1577 69.8253 14.7824 69.2226 15.5734 68.7823C16.3739 68.3519 17.2671 68.1455 18.2529 68.1632C19.2388 68.1808 20.1191 68.4189 20.8941 68.8775C21.6785 69.3459 22.2812 69.9706 22.7023 70.7516C23.1331 71.5328 23.3401 72.3921 23.3233 73.3297C23.3064 74.2768 23.0687 75.1331 22.6103 75.8983C22.1615 76.6637 21.5417 77.2618 20.7509 77.6923C19.9601 78.1229 19.0669 78.3293 18.0714 78.3115C17.0759 78.2937 16.1907 78.0555 15.4158 77.5969C14.6408 77.1383 14.038 76.5184 13.6072 75.7373C13.1861 74.9563 12.984 74.0922 13.001 73.145ZM14.1463 73.1655C14.1337 73.8711 14.2867 74.5071 14.6053 75.0735C14.9237 75.6496 15.3845 76.1026 15.9877 76.4325C16.5907 76.772 17.2933 76.9489 18.0955 76.9632C18.9074 76.9778 19.6159 76.8261 20.221 76.5082C20.8356 76.2001 21.3122 75.7687 21.6509 75.214C21.9895 74.6593 22.1652 74.0244 22.178 73.3092C22.1908 72.594 22.0379 71.9531 21.7193 71.3867C21.4007 70.8202 20.9399 70.3672 20.3369 70.0277C19.7434 69.698 19.0407 69.526 18.2288 69.5114C17.4266 69.4971 16.7182 69.6439 16.1036 69.952C15.4888 70.2697 15.0121 70.7059 14.6735 71.2606C14.3346 71.825 14.1589 72.46 14.1463 73.1655Z M14.1502 62.196C14.2809 61.5419 14.5121 60.9769 14.8438 60.501C15.183 60.0365 15.5858 59.698 16.0522 59.4856C16.528 59.2751 17.037 59.2191 17.5792 59.3176L17.3036 60.6968C16.8296 60.6514 16.3984 60.7624 16.0098 61.0298C15.6288 61.3085 15.3738 61.7702 15.245 62.4148C15.1219 63.0309 15.177 63.5447 15.4102 63.956C15.6511 64.3787 16.0132 64.6384 16.4966 64.735C16.8758 64.8108 17.2047 64.7681 17.4834 64.6069C17.762 64.4457 17.9942 64.221 18.18 63.9328C18.3657 63.6446 18.5827 63.2493 18.831 62.7469C19.1323 62.1269 19.4081 61.6349 19.6583 61.2709C19.9065 60.9163 20.2392 60.6328 20.6562 60.4204C21.0809 60.2194 21.6013 60.1805 22.2174 60.3036C22.7577 60.4116 23.209 60.6447 23.5711 61.0029C23.9333 61.3612 24.1788 61.8095 24.3079 62.3479C24.435 62.8957 24.4341 63.4919 24.3053 64.1365C24.1197 65.0655 23.7359 65.7774 23.154 66.2723C22.5701 66.7767 21.8867 66.9901 21.1038 66.9125L21.3879 65.4906C21.7765 65.519 22.1481 65.3862 22.5026 65.0923C22.8665 64.8003 23.1063 64.3652 23.2218 63.7869C23.3298 63.2466 23.2757 62.7774 23.0595 62.3793C22.8528 61.9832 22.4982 61.7349 21.9958 61.6345C21.6356 61.5625 21.3219 61.6033 21.0546 61.7569C20.7854 61.92 20.5598 62.1361 20.3779 62.4054C20.2035 62.686 19.9865 63.0813 19.7269 63.5913C19.4161 64.2094 19.1308 64.6995 18.8712 65.0616C18.621 65.4257 18.2826 65.7129 17.8561 65.9234C17.4391 66.1358 16.9177 66.1795 16.2921 66.0545C15.8087 65.9579 15.3792 65.739 15.0038 65.3978C14.6284 65.0566 14.3582 64.6083 14.1931 64.0529C14.0281 63.4974 14.0138 62.8785 14.1502 62.196Z M25.4198 58.8863L15.7969 55.7974L16.2002 54.541L25.8231 57.6299L25.4198 58.8863Z M21.2583 43.7055C21.627 43.0589 22.1091 42.5549 22.7047 42.1934C23.2955 41.8403 23.9458 41.6659 24.6556 41.67C25.369 41.6873 26.0826 41.8995 26.7964 42.3064C27.5018 42.7086 28.037 43.2141 28.4021 43.8229C28.7708 44.4448 28.9471 45.1017 28.9309 45.7935C28.9232 46.4902 28.7326 47.166 28.3591 47.821C27.9856 48.476 27.5011 48.9842 26.9056 49.3457C26.3184 49.7119 25.6699 49.893 24.9601 49.8889C24.2455 49.8931 23.5313 49.6918 22.8175 49.2848C22.1037 48.8778 21.5649 48.3591 21.201 47.7288C20.8407 47.1117 20.6668 46.4506 20.6793 45.7455C20.6919 45.0405 20.8849 44.3605 21.2583 43.7055ZM22.266 44.2801C22.0314 44.6916 21.9077 45.1329 21.895 45.6041C21.8823 46.0753 22.0068 46.5302 22.2686 46.9688C22.5256 47.4158 22.9312 47.7973 23.4854 48.1133C24.0397 48.4294 24.5722 48.5883 25.083 48.5902C25.5937 48.5922 26.042 48.4694 26.4279 48.2221C26.8221 47.9795 27.1366 47.6525 27.3712 47.241C27.6106 46.8211 27.7343 46.3798 27.7422 45.917C27.7538 45.4673 27.6263 45.0274 27.3597 44.5972C27.0931 44.167 26.6827 43.7939 26.1285 43.4779C25.5658 43.1571 25.0339 42.9873 24.5327 42.9686C24.0267 42.9583 23.579 43.0702 23.1896 43.3044C22.8085 43.5434 22.5007 43.8686 22.266 44.2801Z M33.3012 34.3847C33.9271 34.9021 34.37 35.4814 34.63 36.1228C34.8974 36.7703 34.9798 37.4216 34.8772 38.0767C34.7684 38.7393 34.4893 39.3426 34.0396 39.8865C33.5962 40.4229 33.0958 40.7931 32.5384 40.9971C31.981 41.201 31.4471 41.2551 30.9368 41.1594L32.0544 42.0832L31.2045 43.1114L25.0801 38.0488L25.93 37.0206L27.07 37.9629C26.8786 37.4661 26.83 36.918 26.9242 36.3186C27.0197 35.7328 27.286 35.1754 27.7233 34.6464C28.1729 34.1025 28.7135 33.7216 29.3451 33.5037C29.9767 33.2859 30.6394 33.2504 31.3331 33.3974C32.0268 33.5445 32.6828 33.8736 33.3012 34.3847ZM29.0034 39.5611C29.4653 39.943 29.9447 40.1824 30.4414 40.2795C30.9381 40.3765 31.4082 40.3388 31.8519 40.1662C32.2968 40.0073 32.6764 39.7378 32.9905 39.3578C33.3046 38.9778 33.5015 38.5575 33.5814 38.0967C33.6613 37.636 33.6068 37.1708 33.4181 36.7013C33.2293 36.2317 32.904 35.806 32.442 35.4241C31.9726 35.0361 31.4859 34.7905 30.9817 34.6873C30.485 34.5902 30.0142 34.6212 29.5692 34.7801C29.1318 34.9453 28.756 35.2178 28.4419 35.5978C28.1277 35.9778 27.9308 36.3981 27.8509 36.8589C27.7723 37.3332 27.8274 37.8052 28.0162 38.2748C28.2124 38.7505 28.5415 39.1793 29.0034 39.5611ZM35.6239 39.1079C35.9608 39.4741 36.1497 39.8373 36.1908 40.1973C36.2256 40.5647 36.1199 40.8975 35.8735 41.1955C35.7565 41.3371 35.6319 41.4347 35.4997 41.4885C35.3687 41.5558 35.2001 41.6233 34.9936 41.691C34.8329 41.7337 34.6963 41.7776 34.5839 41.8226C34.4789 41.8737 34.3863 41.9477 34.3063 42.0446C34.2016 42.1713 34.1532 42.3132 34.1613 42.4703C34.1693 42.6275 34.2424 42.7819 34.3803 42.9336L33.8999 43.5147C33.5644 43.1621 33.3791 42.802 33.3443 42.4346C33.3094 42.0671 33.4151 41.7344 33.6615 41.4363C33.7785 41.2948 33.9056 41.1866 34.0426 41.1118C34.181 41.0506 34.3541 40.993 34.5618 40.9389C34.7348 40.8813 34.8708 40.8307 34.9696 40.7869C35.0623 40.7507 35.1487 40.6841 35.2288 40.5873C35.3335 40.4606 35.3818 40.3187 35.3737 40.1615C35.3595 40.0118 35.2797 39.8581 35.1343 39.7002L35.6239 39.1079Z M35.394 28.5354C34.9547 28.9141 34.677 29.3322 34.5609 29.7897C34.4447 30.2472 34.4959 30.7136 34.7142 31.189L33.638 32.1168C33.2921 31.4195 33.1773 30.7016 33.2937 29.9632C33.4091 29.2383 33.7668 28.5725 34.3669 27.9658L33.8935 27.4167C33.4679 27.7964 33.0449 28.0016 32.6245 28.0321C32.2042 28.0627 31.8425 27.9023 31.5395 27.5508C31.2429 27.2067 31.1306 26.8248 31.2028 26.4052C31.275 25.9856 31.5088 25.6054 31.9042 25.2646L33.1672 24.1758L33.7258 24.8237L32.6605 25.7421C32.4189 25.9504 32.2747 26.1385 32.228 26.3064C32.174 26.4806 32.2227 26.6556 32.3742 26.8313C32.5194 26.9997 32.6821 27.07 32.8623 27.0422C33.0353 27.0207 33.2426 26.9059 33.4842 26.6976L34.0333 26.2242L35.0463 27.3993C35.5957 27.015 36.178 26.7874 36.7933 26.7165C37.4149 26.6528 38.028 26.7497 38.6327 27.0069C39.2363 27.2778 39.7875 27.7025 40.2861 28.2809C40.8226 28.9032 41.1652 29.5523 41.3139 30.2281C41.469 30.9113 41.4373 31.5704 41.2189 32.2054C40.9932 32.8466 40.5948 33.4134 40.0237 33.9058C39.2842 34.5433 38.5219 34.8878 37.7367 34.9393C36.9442 34.9971 36.1965 34.7738 35.4937 34.2694L36.5699 33.3415C36.988 33.6193 37.4387 33.7349 37.9219 33.6884C38.3978 33.6483 38.8554 33.4388 39.2947 33.0601C39.8658 32.5678 40.1566 31.9725 40.1672 31.2741C40.1841 30.5831 39.8833 29.8789 39.2647 29.1614C38.6399 28.4365 37.9813 28.0279 37.289 27.9355C36.5968 27.8431 35.9651 28.0431 35.394 28.5354Z M49.0575 22.9376C49.4777 23.6325 49.7047 24.3255 49.7385 25.0167C49.7774 25.7162 49.6403 26.3582 49.3273 26.9429C49.006 27.5325 48.5435 28.0098 47.9396 28.375C47.344 28.7351 46.7495 28.9195 46.156 28.9281C45.5625 28.9368 45.0407 28.8117 44.5906 28.553L45.3408 29.7938L44.1993 30.484L40.0879 23.6844L41.2294 22.9941L41.9947 24.2598C41.978 23.7277 42.1129 23.1942 42.3996 22.6594C42.6829 22.1379 43.1183 21.6996 43.7056 21.3444C44.3095 20.9793 44.9454 20.7981 45.6136 20.8008C46.2817 20.8035 46.9189 20.9887 47.5253 21.3563C48.1316 21.7239 48.6424 22.251 49.0575 22.9376ZM43.2926 26.4064C43.6027 26.9192 43.9762 27.3034 44.4131 27.5589C44.85 27.8144 45.3063 27.9338 45.782 27.9173C46.2545 27.914 46.7017 27.7849 47.1236 27.5298C47.5454 27.2747 47.8701 26.9428 48.0975 26.5342C48.3248 26.1256 48.4269 25.6686 48.4036 25.163C48.3804 24.6574 48.2137 24.1482 47.9036 23.6354C47.5885 23.1142 47.21 22.7218 46.7681 22.458C46.3312 22.2025 45.8765 22.0764 45.4041 22.0797C44.9366 22.0913 44.4919 22.2246 44.07 22.4796C43.6482 22.7347 43.3235 23.0666 43.0961 23.4752C42.8655 23.8971 42.7618 24.3608 42.7851 24.8663C42.8133 25.3802 42.9825 25.8935 43.2926 26.4064Z M57.6639 19.4975C57.9638 20.2625 58.0719 20.9884 57.9881 21.6754C57.9079 22.3713 57.6595 22.9826 57.243 23.5093C56.8174 24.0395 56.2537 24.4421 55.5517 24.7173C54.6427 25.0736 53.8093 25.1459 53.0514 24.9342C52.2845 24.726 51.6532 24.2675 51.1572 23.5586L52.4802 23.04C52.7826 23.4406 53.1695 23.6991 53.6408 23.8155C54.1031 23.9354 54.6042 23.8895 55.1442 23.6778C55.8462 23.4026 56.318 22.9374 56.5595 22.2821C56.8045 21.6357 56.7542 20.8716 56.4085 19.9896C56.0592 19.0986 55.5733 18.4947 54.9508 18.1781C54.3283 17.8614 53.6661 17.8407 52.9641 18.1158C52.4241 18.3275 52.0235 18.6299 51.7623 19.023C51.501 19.4161 51.3947 19.8731 51.4431 20.394L50.1201 20.9126C50.0218 20.079 50.1796 19.3163 50.5937 18.6244C51.0113 17.9416 51.6656 17.4256 52.5566 17.0763C53.2586 16.8012 53.9459 16.7135 54.6183 16.8133C55.2818 16.9166 55.8794 17.1963 56.4112 17.6524C56.943 18.1084 57.3606 18.7235 57.6639 19.4975Z M61.9411 23.7647C62.1844 23.7017 62.4121 23.7326 62.6242 23.8574C62.8363 23.9822 62.9738 24.1663 63.0368 24.4096C63.0998 24.6529 63.0689 24.8806 62.9441 25.0927C62.8193 25.3047 62.6352 25.4423 62.3919 25.5053C62.158 25.5659 61.9396 25.5325 61.7369 25.4053C61.5249 25.2805 61.3873 25.0964 61.3243 24.8531C61.2613 24.6098 61.2922 24.3821 61.417 24.1701C61.5325 23.9604 61.7072 23.8253 61.9411 23.7647ZM61 22.6754L59.0078 14.9832L60.2852 14.6523L62.2773 22.3446L61 22.6754Z M64.0645 20.8716L65.7086 20.5938L64.5659 13.8312L65.8669 13.6113L67.0097 20.374L68.0248 20.2024L68.206 21.2747L67.1909 21.4463L67.2851 22.0038C67.4333 22.8807 67.3172 23.5572 66.9369 24.0332C66.5486 24.5204 65.8541 24.8486 64.8533 25.0177L64.6697 23.9311C65.2416 23.8344 65.6273 23.6516 65.827 23.3826C66.0187 23.1247 66.071 22.7384 65.9841 22.2237L65.8898 21.6661L64.2457 21.9439L64.0645 20.8716Z M70.9039 22.3432C71.1544 22.3221 71.3736 22.391 71.5616 22.5498C71.7495 22.7086 71.854 22.9132 71.8751 23.1637C71.8962 23.4141 71.8273 23.6333 71.6685 23.8213C71.5097 24.0093 71.305 24.1138 71.0546 24.1348C70.8138 24.1551 70.6042 24.0854 70.4259 23.9258C70.2379 23.767 70.1334 23.5623 70.1123 23.3119C70.0913 23.0614 70.1601 22.8422 70.3189 22.6543C70.4681 22.4671 70.6631 22.3634 70.9039 22.3432ZM70.16 21.1107L69.4941 13.1926L70.809 13.082L71.4749 21.0001L70.16 21.1107Z M75.5842 19.8733L75.618 15.1899C75.6208 14.8032 75.5406 14.5271 75.3774 14.3616C75.2142 14.2058 74.9296 14.1264 74.5236 14.1235L73.5522 14.1165L73.5602 13L74.7492 13.0086C75.4838 13.0139 76.0336 13.187 76.3985 13.528C76.7634 13.8689 76.943 14.4261 76.9374 15.1994L76.9037 19.8828L77.9332 19.8902L77.9253 20.9777L76.8958 20.9703L76.8814 22.9712L75.562 22.9617L75.5764 20.9607L73.5029 20.9458L73.5108 19.8583L75.5842 19.8733Z M81.7222 20.1092C81.441 20.5348 81.0751 20.8489 80.6244 21.0513C80.1641 21.2526 79.6265 21.3188 79.0117 21.2498L79.1636 19.8953L79.5094 19.9341C80.9792 20.0989 81.8035 19.3839 81.9822 17.7892L82.4636 13.4951L83.7749 13.6421L82.8897 21.5387L81.5784 21.3917L81.7222 20.1092Z M85.5574 18.3465C85.6188 18.1028 85.6978 17.8486 85.7945 17.5838L91.953 19.1354C92.0974 18.3643 91.9896 17.7041 91.6296 17.1548C91.2578 16.6126 90.7344 16.2564 90.0595 16.0864C89.5065 15.9471 89.0153 15.9579 88.5859 16.1189C88.1449 16.2869 87.795 16.5676 87.5364 16.961L86.1585 16.6138C86.5512 15.9253 87.116 15.4246 87.8528 15.1117C88.5871 14.8083 89.4137 14.7723 90.3323 15.0037C91.0634 15.1879 91.6783 15.5173 92.1768 15.9918C92.6659 16.4639 92.999 17.0413 93.1759 17.7239C93.3505 18.4158 93.3374 19.1602 93.1367 19.9569C92.9359 20.7537 92.6006 21.4119 92.1308 21.9315C91.6609 22.4512 91.1 22.7983 90.4479 22.9729C89.784 23.1546 89.0772 23.151 88.3273 22.962C87.5961 22.7778 86.9895 22.4555 86.5074 21.9951C86.0252 21.5347 85.705 20.9855 85.5468 20.3475C85.3768 19.7165 85.3803 19.0495 85.5574 18.3465ZM86.8118 18.9466C86.689 19.4341 86.6917 19.8784 86.82 20.2795C86.9458 20.69 87.1738 21.0316 87.5039 21.3041C87.8222 21.5837 88.2063 21.7802 88.6563 21.8935C89.3031 22.0565 89.9081 21.9896 90.4713 21.6929C91.0252 21.3938 91.427 20.8869 91.6768 20.1723L86.8118 18.9466Z M101.693 23.6129C101.366 24.3668 100.931 24.9578 100.387 25.3859C99.8399 25.8228 99.2328 26.0812 98.566 26.161C97.8905 26.2369 97.2068 26.125 96.5149 25.8252C95.6191 25.4369 94.9771 24.9006 94.589 24.2161C94.1919 23.5278 94.0675 22.7575 94.2157 21.9051L95.5195 22.4702C95.4515 22.9674 95.5435 23.4235 95.7957 23.8383C96.039 24.2493 96.4268 24.5701 96.9589 24.8007C97.6507 25.1006 98.3133 25.1033 98.9466 24.8088C99.5761 24.5233 100.079 23.9459 100.456 23.0766C100.836 22.1986 100.918 21.4278 100.699 20.7643C100.481 20.1009 100.026 19.6192 99.3345 19.3194C98.8023 19.0887 98.305 19.0207 97.8426 19.1153C97.3802 19.2099 96.9826 19.459 96.6496 19.8625L95.3458 19.2974C95.8638 18.637 96.5136 18.2074 97.295 18.0088C98.0726 17.819 98.9004 17.9144 99.7785 18.295C100.47 18.5948 101.019 19.0172 101.426 19.5621C101.824 20.1031 102.05 20.7229 102.106 21.4212C102.161 22.1195 102.024 22.8501 101.693 23.6129Z M113.446 30.6702C113.819 30.9919 114.028 31.3944 114.071 31.8779C114.1 32.3624 113.954 32.7914 113.632 33.165C113.304 33.546 112.902 33.7543 112.425 33.79C111.934 33.8267 111.502 33.6842 111.128 33.3625C110.747 33.0346 110.538 32.6252 110.502 32.1344C110.459 31.651 110.601 31.2188 110.929 30.8378C111.251 30.4642 111.657 30.2591 112.148 30.2224C112.632 30.193 113.065 30.3423 113.446 30.6702Z M119.603 47.3595L118.606 48.0338L117.079 45.7758L125.763 39.9023L126.51 41.0073L118.823 46.2065L119.603 47.3595Z M127.001 53.3755C125.514 54.1197 124.235 54.4575 123.163 54.3888C122.082 54.3244 121.238 53.6871 120.633 52.4769C120.031 51.2753 120.029 50.2227 120.625 49.3189C121.212 48.4194 122.25 47.5976 123.736 46.8534C125.249 46.0962 126.546 45.7498 127.627 45.8142C128.708 45.8786 129.549 46.5116 130.15 47.7131C130.756 48.9233 130.761 49.9803 130.164 50.8841C129.568 51.7879 128.514 52.6183 127.001 53.3755ZM124.321 48.0204C123.569 48.3968 122.959 48.7667 122.492 49.13C122.013 49.4891 121.691 49.9042 121.527 50.3755C121.358 50.8381 121.419 51.359 121.709 51.9382C122.003 52.526 122.388 52.8955 122.864 53.0466C123.335 53.189 123.86 53.1802 124.439 53.02C125.006 52.8554 125.665 52.585 126.417 52.2085C127.195 51.8191 127.824 51.4449 128.303 51.0859C128.779 50.7182 129.101 50.3031 129.269 49.8404C129.433 49.3692 129.368 48.8396 129.074 48.2518C128.784 47.6726 128.403 47.3118 127.932 47.1694C127.457 47.0183 126.931 47.0271 126.356 47.196C125.777 47.3562 125.099 47.631 124.321 48.0204Z M129.828 62.2987C128.24 62.7883 126.922 62.9111 125.876 62.667C124.82 62.4258 124.093 61.6585 123.695 60.3652C123.299 59.0811 123.47 58.0423 124.206 57.2489C124.934 56.4583 126.092 55.8182 127.681 55.3286C129.297 54.8305 130.634 54.702 131.689 54.9432C132.745 55.1845 133.47 55.9471 133.866 57.2312C134.264 58.5246 134.095 59.5679 133.359 60.3614C132.622 61.1548 131.445 61.8006 129.828 62.2987ZM128.065 56.5757C127.261 56.8234 126.599 57.088 126.079 57.3697C125.547 57.6449 125.161 58.0015 124.922 58.4394C124.68 58.8681 124.654 59.3919 124.845 60.0108C125.038 60.639 125.357 61.0667 125.802 61.294C126.243 61.512 126.763 61.5896 127.36 61.5268C127.946 61.4576 128.641 61.2992 129.444 61.0516C130.276 60.7954 130.957 60.5297 131.49 60.2544C132.019 59.97 132.405 59.6134 132.647 59.1847C132.886 58.7468 132.909 58.2138 132.716 57.5856C132.525 56.9667 132.209 56.5482 131.767 56.3302C131.323 56.1029 130.804 56.0253 130.209 56.0973C129.611 56.1601 128.897 56.3196 128.065 56.5757Z M133.438 69.5733C133.972 69.4043 134.364 69.1275 134.615 68.7428C134.864 68.3485 134.949 67.8543 134.869 67.2603C134.763 66.465 134.373 65.9223 133.7 65.6321C133.026 65.3323 131.953 65.2909 130.48 65.5078C130.938 65.6512 131.323 65.941 131.635 66.377C131.937 66.8144 132.127 67.3205 132.204 67.8954C132.29 68.5373 132.238 69.1295 132.047 69.672C131.846 70.2061 131.51 70.651 131.041 71.0064C130.572 71.3619 129.978 71.5878 129.259 71.6841C128.234 71.8215 127.37 71.6349 126.668 71.1243C125.956 70.615 125.527 69.8143 125.381 68.722C125.201 67.3807 125.511 66.3833 126.311 65.73C127.11 65.067 128.371 64.62 130.096 64.3889C131.303 64.2271 132.314 64.2037 133.129 64.3188C133.943 64.4243 134.591 64.7082 135.072 65.1703C135.552 65.6229 135.852 66.2947 135.971 67.1858C136.102 68.163 135.941 68.96 135.487 69.5768C135.033 70.1935 134.404 70.5947 133.6 70.7805L133.438 69.5733ZM131.069 67.8281C130.983 67.1862 130.716 66.6855 130.268 66.3262C129.81 65.9681 129.241 65.8347 128.561 65.9259C127.842 66.0221 127.29 66.301 126.903 66.7625C126.516 67.224 126.371 67.8188 126.469 68.5469C126.559 69.2176 126.841 69.7259 127.317 70.0718C127.791 70.4081 128.373 70.5301 129.063 70.4376C129.762 70.3439 130.297 70.0724 130.666 69.6231C131.034 69.1737 131.169 68.5754 131.069 67.8281Z M135.807 83.5867C135.685 84.5163 135.357 85.3359 134.825 86.0457C134.283 86.7541 133.594 87.2823 132.758 87.6302C131.914 87.9673 131.003 88.0713 130.026 87.9422C129.048 87.8131 128.2 87.4769 127.482 86.9336C126.756 86.3794 126.228 85.6905 125.898 84.8668C125.558 84.042 125.45 83.1647 125.572 82.2351C125.696 81.2959 126.029 80.4721 126.571 79.7637C127.104 79.0539 127.787 78.5299 128.622 78.1916C129.456 77.8532 130.367 77.7492 131.354 77.8796C132.341 78.0099 133.194 78.3468 133.912 78.8901C134.63 79.4335 135.159 80.1176 135.498 80.9425C135.828 81.7661 135.931 82.6475 135.807 83.5867ZM134.672 83.4367C134.764 82.7371 134.684 82.0879 134.432 81.489C134.181 80.8806 133.774 80.3784 133.212 79.9824C132.651 79.5768 131.973 79.3215 131.178 79.2165C130.373 79.1102 129.652 79.1807 129.014 79.4281C128.369 79.6646 127.847 80.0393 127.447 80.5521C127.048 81.0649 126.802 81.6759 126.708 82.3851C126.614 83.0943 126.694 83.7483 126.946 84.3471C127.199 84.946 127.605 85.4482 128.166 85.8538C128.718 86.2485 129.397 86.499 130.202 86.6053C130.997 86.7104 131.718 86.6446 132.363 86.4081C133.01 86.162 133.533 85.7825 133.933 85.2697C134.333 84.7473 134.579 84.1363 134.672 83.4367Z M133.423 94.3362C133.219 94.9712 132.925 95.5063 132.542 95.9415C132.152 96.3645 131.713 96.655 131.226 96.8131C130.729 96.9682 130.217 96.9661 129.69 96.8067L130.12 95.4677C130.586 95.5666 131.027 95.5053 131.443 95.2838C131.853 95.0501 132.159 94.6203 132.36 93.9945C132.553 93.3963 132.556 92.8797 132.371 92.4445C132.18 91.9972 131.849 91.6981 131.38 91.5472C131.012 91.4289 130.68 91.434 130.385 91.5625C130.09 91.691 129.834 91.8879 129.617 92.1531C129.399 92.4184 129.139 92.7865 128.835 93.2575C128.465 93.8392 128.136 94.2968 127.846 94.63C127.559 94.9541 127.196 95.198 126.758 95.3617C126.313 95.5132 125.791 95.4928 125.193 95.3005C124.669 95.1319 124.247 94.8491 123.928 94.4521C123.609 94.055 123.415 93.5817 123.348 93.0322C123.284 92.4734 123.353 91.8811 123.554 91.2553C123.844 90.3535 124.306 89.6897 124.94 89.2641C125.578 88.8292 126.281 88.6948 127.05 88.8608L126.606 90.2412C126.223 90.1689 125.839 90.2586 125.454 90.5104C125.059 90.7592 124.771 91.1643 124.591 91.7257C124.422 92.2502 124.423 92.7226 124.592 93.1426C124.753 93.5597 125.077 93.8466 125.565 94.0034C125.914 94.1158 126.231 94.1109 126.514 93.9886C126.8 93.8571 127.048 93.668 127.26 93.4212C127.465 93.1622 127.725 92.794 128.041 92.3168C128.42 91.738 128.759 91.2834 129.058 90.9531C129.348 90.6199 129.717 90.3729 130.164 90.2121C130.603 90.0484 131.126 90.0642 131.733 90.2595C132.202 90.4103 132.604 90.6766 132.939 91.0581C133.273 91.4397 133.49 91.9158 133.591 92.4864C133.692 93.057 133.636 93.6736 133.423 94.3362Z M121.863 96.29L131.051 100.501L130.501 101.7L121.313 97.4896L121.863 96.29Z M124.252 111.896C123.811 112.496 123.274 112.941 122.641 113.232C122.014 113.515 121.348 113.613 120.643 113.527C119.936 113.428 119.252 113.135 118.59 112.648C117.935 112.167 117.462 111.604 117.169 110.957C116.875 110.297 116.775 109.624 116.871 108.938C116.959 108.247 117.226 107.598 117.673 106.99C118.119 106.383 118.659 105.934 119.292 105.643C119.918 105.347 120.583 105.242 121.287 105.328C121.998 105.406 122.684 105.688 123.346 106.175C124.008 106.661 124.484 107.239 124.773 107.907C125.059 108.561 125.156 109.238 125.062 109.937C124.969 110.636 124.699 111.289 124.252 111.896ZM123.317 111.21C123.598 110.828 123.771 110.404 123.838 109.937C123.905 109.471 123.834 109.004 123.625 108.538C123.421 108.065 123.062 107.639 122.548 107.261C122.034 106.884 121.523 106.664 121.016 106.604C120.509 106.543 120.049 106.613 119.637 106.814C119.218 107.01 118.868 107.299 118.587 107.68C118.301 108.07 118.127 108.494 118.066 108.953C118.003 109.398 118.079 109.85 118.294 110.308C118.509 110.766 118.874 111.184 119.388 111.561C119.91 111.945 120.419 112.175 120.915 112.251C121.416 112.32 121.874 112.26 122.288 112.072C122.694 111.879 123.037 111.591 123.317 111.21Z M111.227 119.793C110.664 119.208 110.289 118.583 110.103 117.916C109.91 117.242 109.901 116.586 110.077 115.947C110.26 115.3 110.605 114.733 111.113 114.243C111.614 113.76 112.153 113.448 112.73 113.308C113.307 113.168 113.843 113.175 114.34 113.327L113.333 112.284L114.294 111.358L119.809 117.078L118.848 118.004L117.822 116.939C117.956 117.454 117.942 118.005 117.781 118.59C117.621 119.161 117.293 119.685 116.799 120.161C116.291 120.651 115.711 120.968 115.059 121.114C114.407 121.259 113.744 121.22 113.072 120.995C112.399 120.771 111.784 120.37 111.227 119.793ZM116.081 115.133C115.665 114.702 115.215 114.41 114.733 114.258C114.25 114.105 113.779 114.09 113.319 114.211C112.858 114.319 112.451 114.544 112.096 114.886C111.741 115.228 111.498 115.624 111.367 116.073C111.236 116.522 111.237 116.99 111.372 117.478C111.507 117.966 111.782 118.425 112.198 118.857C112.621 119.295 113.077 119.594 113.566 119.753C114.049 119.906 114.52 119.928 114.98 119.82C115.433 119.705 115.837 119.477 116.192 119.135C116.547 118.793 116.79 118.397 116.921 117.948C117.053 117.486 117.051 117.011 116.917 116.523C116.775 116.028 116.497 115.565 116.081 115.133ZM109.451 114.838C109.158 114.436 109.011 114.054 109.011 113.692C109.017 113.323 109.16 113.004 109.438 112.735C109.571 112.608 109.705 112.525 109.843 112.486C109.981 112.434 110.156 112.386 110.369 112.342C110.533 112.318 110.674 112.29 110.791 112.258C110.901 112.219 111.001 112.156 111.091 112.068C111.21 111.954 111.274 111.819 111.283 111.662C111.293 111.505 111.238 111.343 111.118 111.177L111.661 110.653C111.954 111.042 112.098 111.42 112.091 111.789C112.084 112.158 111.942 112.477 111.663 112.745C111.531 112.873 111.393 112.966 111.248 113.025C111.104 113.07 110.925 113.108 110.713 113.138C110.534 113.176 110.394 113.211 110.291 113.243C110.194 113.269 110.101 113.325 110.011 113.412C109.892 113.527 109.828 113.662 109.819 113.819C109.816 113.97 109.878 114.131 110.005 114.305L109.451 114.838Z M108.489 125.366C108.968 125.039 109.291 124.655 109.459 124.214C109.626 123.773 109.628 123.303 109.465 122.806L110.639 122.006C110.904 122.738 110.936 123.464 110.737 124.185C110.541 124.892 110.11 125.513 109.445 126.048L109.853 126.647C110.319 126.318 110.762 126.162 111.184 126.179C111.605 126.197 111.946 126.397 112.207 126.78C112.463 127.156 112.531 127.548 112.412 127.957C112.293 128.365 112.017 128.717 111.586 129.011L110.208 129.95L109.726 129.243L110.889 128.451C111.152 128.271 111.317 128.1 111.382 127.939C111.456 127.772 111.427 127.593 111.296 127.401C111.171 127.217 111.018 127.129 110.835 127.136C110.661 127.138 110.442 127.228 110.178 127.408L109.579 127.816L108.706 126.534C108.116 126.854 107.512 127.014 106.893 127.015C106.268 127.008 105.67 126.842 105.098 126.518C104.529 126.181 104.029 125.696 103.599 125.065C103.137 124.386 102.87 123.702 102.799 123.014C102.722 122.318 102.828 121.666 103.117 121.06C103.414 120.449 103.874 119.931 104.497 119.506C105.304 118.956 106.1 118.7 106.886 118.738C107.68 118.77 108.398 119.077 109.039 119.657L107.864 120.458C107.48 120.134 107.046 119.968 106.56 119.96C106.083 119.946 105.605 120.102 105.125 120.429C104.502 120.853 104.146 121.412 104.056 122.105C103.961 122.789 104.18 123.523 104.714 124.306C105.253 125.097 105.861 125.577 106.538 125.747C107.215 125.918 107.866 125.79 108.489 125.366Z M94.281 129.374C93.9426 128.635 93.7959 127.921 93.8409 127.23C93.8819 126.531 94.0911 125.909 94.4686 125.364C94.8548 124.814 95.3687 124.393 96.0102 124.099C96.6429 123.809 97.2545 123.693 97.8451 123.752C98.4357 123.811 98.9399 123.994 99.3577 124.303L98.7535 122.985L99.9661 122.429L103.277 129.652L102.065 130.208L101.448 128.863C101.404 129.394 101.21 129.909 100.864 130.407C100.523 130.893 100.041 131.279 99.417 131.565C98.7755 131.859 98.123 131.967 97.4595 131.888C96.7961 131.81 96.184 131.553 95.6234 131.119C95.0628 130.685 94.6153 130.103 94.281 129.374ZM100.403 126.583C100.153 126.038 99.8259 125.614 99.4209 125.311C99.016 125.007 98.5762 124.836 98.1017 124.799C97.6319 124.748 97.1729 124.826 96.7248 125.031C96.2766 125.237 95.9163 125.529 95.644 125.909C95.3716 126.29 95.2182 126.732 95.1838 127.237C95.1494 127.742 95.2571 128.267 95.5068 128.812C95.7606 129.365 96.092 129.798 96.501 130.11C96.906 130.414 97.3434 130.591 97.8132 130.641C98.2789 130.683 98.7359 130.601 99.184 130.396C99.6322 130.19 99.9924 129.898 100.265 129.518C100.542 129.125 100.698 128.676 100.732 128.171C100.762 127.657 100.653 127.128 100.403 126.583Z M85.3401 131.804C85.13 131.009 85.1059 130.276 85.2679 129.603C85.4274 128.921 85.7442 128.342 86.2184 127.867C86.7019 127.389 87.3081 127.053 88.037 126.86C88.9809 126.611 89.8171 126.635 90.5457 126.932C91.2836 127.226 91.8582 127.754 92.2696 128.515L90.8959 128.879C90.6414 128.446 90.2868 128.145 89.8319 127.975C89.3864 127.803 88.8833 127.791 88.3226 127.94C87.5937 128.133 87.0717 128.541 86.7566 129.164C86.4391 129.778 86.4015 130.543 86.6438 131.459C86.8886 132.384 87.302 133.04 87.8841 133.425C88.4661 133.811 89.1216 133.908 89.8506 133.715C90.4113 133.567 90.8439 133.312 91.1485 132.952C91.4531 132.591 91.6112 132.149 91.6228 131.626L92.9965 131.263C92.9986 132.102 92.7543 132.842 92.2636 133.482C91.7705 134.112 91.0613 134.55 90.1361 134.795C89.4072 134.987 88.7144 134.996 88.0579 134.819C87.4106 134.641 86.849 134.294 86.373 133.78C85.8971 133.266 85.5528 132.607 85.3401 131.804Z M81.5332 127.097C81.2845 127.133 81.0615 127.077 80.8644 126.93C80.6672 126.783 80.5506 126.585 80.5145 126.336C80.4785 126.087 80.5341 125.864 80.6813 125.667C80.8286 125.47 81.0265 125.354 81.2753 125.317C81.5144 125.283 81.7278 125.34 81.9154 125.488C82.1126 125.636 82.2292 125.834 82.2652 126.082C82.3013 126.331 82.2457 126.554 82.0985 126.751C81.9608 126.947 81.7724 127.062 81.5332 127.097ZM82.3497 128.282L83.4897 136.146L82.1838 136.336L81.0439 128.472L82.3497 128.282Z M79.1378 129.731L77.4727 129.82L77.8361 136.669L76.5184 136.739L76.155 129.89L75.127 129.944L75.0693 128.858L76.0974 128.804L76.0674 128.239C76.0203 127.351 76.2128 126.692 76.645 126.263C77.0863 125.823 77.8138 125.576 78.8274 125.522L78.8858 126.623C78.3066 126.654 77.9025 126.791 77.6734 127.036C77.4535 127.27 77.3574 127.648 77.3851 128.169L77.415 128.734L79.0802 128.645L79.1378 129.731Z M72.5065 127.49C72.2553 127.483 72.0454 127.389 71.8767 127.21C71.7079 127.031 71.6273 126.816 71.6349 126.565C71.6424 126.313 71.7357 126.103 71.9149 125.935C72.094 125.766 72.3092 125.685 72.5604 125.693C72.8019 125.7 73.0022 125.793 73.1613 125.972C73.33 126.151 73.4106 126.366 73.4031 126.618C73.3956 126.869 73.3022 127.079 73.1231 127.247C72.9536 127.416 72.7481 127.497 72.5065 127.49ZM73.1056 128.799L72.8677 136.742L71.5488 136.702L71.7867 128.76L73.1056 128.799Z M67.5694 129.415L67.0082 134.065C66.9619 134.448 67.0104 134.732 67.1539 134.915C67.2985 135.088 67.5724 135.199 67.9754 135.247L68.9399 135.364L68.8062 136.472L67.6257 136.33C66.8963 136.242 66.3696 136.008 66.0454 135.628C65.7213 135.248 65.6055 134.674 65.6982 133.906L66.2594 129.257L65.2373 129.133L65.3676 128.054L66.3897 128.177L66.6295 126.19L67.9394 126.349L67.6997 128.335L69.7582 128.584L69.6279 129.663L67.5694 129.415Z M61.4979 128.489C61.8252 128.098 62.2242 127.827 62.6948 127.677C63.1749 127.529 63.7165 127.524 64.3196 127.661L64.0161 128.99L63.6768 128.913C62.235 128.583 61.3354 129.201 60.978 130.765L60.0159 134.978L58.7295 134.684L60.4989 126.938L61.7852 127.231L61.4979 128.489Z M57.4939 129.807C57.4051 130.042 57.2976 130.286 57.1714 130.538L51.2301 128.294C50.9986 129.043 51.0304 129.711 51.3255 130.298C51.633 130.879 52.1123 131.293 52.7634 131.539C53.297 131.74 53.7862 131.786 54.2311 131.675C54.6885 131.558 55.068 131.319 55.3698 130.958L56.6992 131.46C56.2304 132.099 55.6122 132.532 54.8446 132.759C54.0804 132.977 53.2552 132.918 52.3689 132.583C51.6636 132.317 51.0903 131.92 50.6492 131.391C50.2171 130.866 49.9521 130.255 49.8542 129.557C49.7596 128.849 49.8575 128.111 50.1479 127.343C50.4382 126.574 50.8464 125.958 51.3724 125.496C51.8985 125.033 52.4954 124.752 53.1631 124.653C53.8433 124.548 54.5452 124.632 55.2686 124.906C55.974 125.172 56.5399 125.561 56.9664 126.074C57.3929 126.586 57.6483 127.168 57.7328 127.82C57.8297 128.467 57.7501 129.129 57.4939 129.807ZM56.3162 129.068C56.4938 128.597 56.5418 128.156 56.4601 127.743C56.3819 127.32 56.1944 126.955 55.8976 126.647C55.6132 126.333 55.254 126.094 54.8199 125.93C54.1959 125.694 53.5872 125.691 52.9938 125.922C52.4095 126.156 51.9525 126.614 51.6227 127.295L56.3162 129.068Z M42.0623 122.736C42.4727 122.024 42.9724 121.487 43.5614 121.123C44.1551 120.751 44.7878 120.564 45.4592 120.561C46.139 120.562 46.8056 120.751 47.4587 121.128C48.3045 121.615 48.8813 122.221 49.189 122.946C49.5051 123.675 49.541 124.454 49.2967 125.284L48.0657 124.574C48.1899 124.088 48.1504 123.624 47.9471 123.184C47.7521 122.748 47.4035 122.385 46.901 122.095C46.2478 121.718 45.5899 121.64 44.9272 121.861C44.2693 122.073 43.7037 122.589 43.2305 123.41C42.7524 124.239 42.584 124.995 42.7252 125.679C42.8664 126.363 43.2636 126.894 43.9168 127.27C44.4192 127.56 44.9055 127.684 45.3757 127.643C45.8459 127.601 46.2693 127.399 46.646 127.036L47.877 127.746C47.2872 128.343 46.5928 128.696 45.7938 128.804C44.9997 128.904 44.1881 128.715 43.359 128.237C42.7059 127.861 42.2084 127.379 41.8665 126.791C41.5331 126.208 41.3785 125.567 41.4029 124.866C41.4272 124.166 41.647 123.456 42.0623 122.736Z" fill="#1d1d1b"/></svg>