<svg width="1688" height="496" viewBox="0 0 1688 496" fill="none" xmlns="http://www.w3.org/2000/svg">
<rect width="1688" height="496" rx="20" fill="white"/>
<path d="M621.008 442V55.2812H660.339L746.691 305.55L742.297 196.346V55.2812H787.78V442H750.866L665.173 187.117L668.029 286.214V442H621.008Z" fill="#FFCE00"/>
<path d="M507.058 446.395C487.429 446.395 471.682 442.146 459.816 433.65C447.951 425.154 439.382 412.483 434.108 395.638C428.835 378.646 426.198 357.479 426.198 332.137V158.992C426.198 136.727 428.688 117.537 433.669 101.424C438.796 85.1641 447.292 72.6396 459.157 63.8506C471.022 54.915 487.282 50.4473 507.937 50.4473C523.464 50.4473 536.281 53.0107 546.389 58.1377C556.643 63.1182 564.699 70.3691 570.559 79.8906C576.418 89.2656 580.52 100.618 582.863 113.948C585.354 127.278 586.599 142.293 586.599 158.992V332.137C586.599 357.479 584.035 378.646 578.908 395.638C573.928 412.483 565.578 425.154 553.859 433.65C542.287 442.146 526.687 446.395 507.058 446.395ZM507.058 402.229C514.968 402.229 520.974 399.959 525.075 395.418C529.177 390.877 531.96 383.479 533.425 373.226C534.89 362.972 535.622 349.422 535.622 332.576V156.355C535.622 135.848 533.864 120.467 530.349 110.213C526.833 99.8125 519.362 94.6123 507.937 94.6123C496.071 94.6123 488.015 99.666 483.767 109.773C479.519 119.881 477.395 135.335 477.395 156.136V332.576C477.395 349.568 478.127 363.191 479.592 373.445C481.057 383.553 483.913 390.877 488.161 395.418C492.556 399.959 498.854 402.229 507.058 402.229Z" fill="#FFCE00"/>
<path d="M321.696 446.614C302.946 446.614 287.712 442.146 275.993 433.211C264.274 424.275 255.705 411.165 250.285 393.88C244.865 376.595 242.155 355.647 242.155 331.038V166.902C242.155 149.471 243.4 133.724 245.891 119.661C248.381 105.452 252.629 93.2207 258.635 82.9668C264.787 72.7129 273.063 64.876 283.464 59.4561C294.011 53.8896 307.268 51.1064 323.234 51.1064C338.029 51.1064 350.334 53.6699 360.148 58.7969C370.109 63.7773 377.946 71.0283 383.659 80.5498C389.519 90.0713 393.62 101.424 395.964 114.607C398.454 127.791 399.699 142.439 399.699 158.553V205.794H350.041V160.091C350.041 138.118 348.356 121.785 344.987 111.092C341.618 100.398 334.367 95.0518 323.234 95.0518C311.369 95.0518 303.386 100.618 299.284 111.751C295.329 122.884 293.352 138.924 293.352 159.871V332.796C293.352 349.349 294.157 362.825 295.769 373.226C297.38 383.479 300.236 391.023 304.338 395.857C308.439 400.545 314.299 402.889 321.916 402.889C333.195 402.889 340.666 397.396 344.328 386.409C348.137 375.276 350.041 357.259 350.041 332.356V284.236H400.358V331.697C400.358 357.039 397.868 378.279 392.888 395.418C387.907 412.41 379.631 425.228 368.059 433.87C356.633 442.366 341.179 446.614 321.696 446.614Z" fill="#FFCE00"/>
<path d="M46.4668 442L103.596 55.2812H167.976L229.719 442H181.818L171.491 370.149H104.694L95.2461 442H46.4668ZM109.968 329.061H165.559L136.994 128.89H136.335L109.968 329.061Z" fill="#FFCE00"/>
<path d="M1055.01 442V55.2812H1176.52V98.5674H1105.98V222.493H1172.78V265.34H1105.98V398.714H1178.05V442H1055.01Z" fill="#FFCE00"/>
<path d="M892.945 442V98.5674H799V55.2812H1045.01V98.5674H943.702V442H892.945Z" fill="#FFCE00"/>
<path d="M1271.7 446.614C1252.95 446.614 1237.71 442.146 1225.99 433.211C1214.28 424.275 1205.71 411.165 1200.29 393.88C1194.87 376.595 1192.16 355.647 1192.16 331.038V166.902C1192.16 149.471 1193.4 133.724 1195.89 119.661C1198.38 105.452 1202.63 93.2207 1208.64 82.9668C1214.79 72.7129 1223.06 64.876 1233.46 59.4561C1244.01 53.8896 1257.27 51.1064 1273.24 51.1064C1288.03 51.1064 1300.33 53.6699 1310.15 58.7969C1320.11 63.7773 1327.95 71.0283 1333.66 80.5498C1339.52 90.0713 1343.62 101.424 1345.96 114.607C1348.46 127.791 1349.7 142.439 1349.7 158.553V205.794H1300.04V160.091C1300.04 138.118 1298.36 121.785 1294.99 111.092C1291.62 100.398 1284.37 95.0518 1273.24 95.0518C1261.37 95.0518 1253.39 100.618 1249.29 111.751C1245.33 122.884 1243.35 138.924 1243.35 159.871V332.796C1243.35 349.349 1244.16 362.825 1245.77 373.226C1247.38 383.479 1250.24 391.023 1254.34 395.857C1258.44 400.545 1264.3 402.889 1271.92 402.889C1283.2 402.889 1290.67 397.396 1294.33 386.409C1298.14 375.276 1300.04 357.259 1300.04 332.356V284.236H1350.36V331.697C1350.36 357.039 1347.87 378.279 1342.89 395.418C1337.91 412.41 1329.63 425.228 1318.06 433.87C1306.63 442.366 1291.18 446.614 1271.7 446.614Z" fill="#FFCE00"/>
<path d="M1373 442V55.2812H1649.99V98.5674H1423.98V222.493H1646.26V265.34H1423.98V398.714H1651.53V442H1373Z" fill="#FFCE00"/>
</svg>
