<svg width="1688" height="496" viewBox="0 0 1688 496" fill="none" xmlns="http://www.w3.org/2000/svg">
<rect width="1688" height="496" rx="20" fill="#FFCE00"/>
<path d="M1465.86 477L1531.87 30.125H1606.27L1677.61 477H1622.26L1610.33 393.973H1533.14L1522.22 477H1465.86ZM1539.23 346.492H1603.47L1570.46 115.184H1569.7L1539.23 346.492Z" fill="#1D1D1B"/>
<path d="M1272.48 477V30.125H1374.04C1397.57 30.125 1415.01 34.526 1426.35 43.3281C1437.86 51.9609 1445.39 64.9102 1448.95 82.1758C1452.5 99.2721 1454.28 120.516 1454.28 145.906C1454.28 172.99 1451.48 194.402 1445.9 210.145C1440.48 225.717 1429.65 235.958 1413.4 240.867C1421.35 242.221 1427.96 245.607 1433.2 251.023C1438.62 256.271 1442.85 264.396 1445.9 275.398C1449.11 286.232 1451.4 300.62 1452.75 318.562C1454.11 336.336 1454.79 358.51 1454.79 385.086C1454.79 387.456 1454.79 391.857 1454.79 398.289C1454.79 404.721 1454.79 412 1454.79 420.125C1454.95 428.25 1455.12 436.375 1455.29 444.5C1455.63 452.456 1455.97 459.396 1456.31 465.32C1456.82 471.245 1457.41 475.138 1458.09 477H1399.18C1398.67 475.815 1398.16 472.091 1397.66 465.828C1397.32 459.396 1396.98 451.102 1396.64 440.945C1396.3 430.789 1396.05 419.363 1395.88 406.668C1395.88 393.803 1395.88 380.262 1395.88 366.043C1395.88 351.655 1395.88 337.098 1395.88 322.371C1395.88 306.967 1395.03 295.288 1393.34 287.332C1391.65 279.207 1388.18 273.621 1382.93 270.574C1377.68 267.358 1369.64 265.411 1358.81 264.734L1331.39 263.211V477H1272.48ZM1331.64 218.777H1362.36C1371.5 218.777 1378.44 216.915 1383.18 213.191C1388.09 209.298 1391.39 201.935 1393.09 191.102C1394.95 180.268 1395.88 164.272 1395.88 143.113V140.32C1395.88 122.547 1395.03 109.09 1393.34 99.9492C1391.65 90.8086 1388.26 84.6302 1383.18 81.4141C1378.27 78.0286 1370.74 76.3359 1360.59 76.3359H1331.64V218.777Z" fill="#1D1D1B"/>
<path d="M1101.96 477V30.125H1242.37V80.1445H1160.86V223.348H1238.05V272.859H1160.86V426.98H1244.14V477H1101.96Z" fill="#1D1D1B"/>
<path d="M933.465 477V30.125H1075.91V80.3984H992.371V212.176H1070.32V262.957H992.371V477H933.465Z" fill="#1D1D1B"/>
<path d="M820.07 482.078C801.789 482.078 786.724 478.947 774.875 472.684C763.195 466.421 754.055 457.449 747.453 445.77C740.852 434.09 736.281 420.125 733.742 403.875C731.203 387.625 729.934 369.428 729.934 349.285V307.391H786.555V352.586C786.555 380.854 788.671 401.082 792.902 413.27C797.303 425.457 806.359 431.551 820.07 431.551C829.38 431.551 836.32 429.35 840.891 424.949C845.461 420.548 848.423 413.523 849.777 403.875C851.132 394.227 851.809 381.447 851.809 365.535C851.809 346.915 848.254 330.581 841.145 316.531C834.204 302.312 823.964 288.178 810.422 274.129L779.445 243.152C770.812 234.012 762.518 224.279 754.562 213.953C746.776 203.458 740.428 191.694 735.52 178.66C730.611 165.626 728.156 150.815 728.156 134.227C728.156 111.375 730.78 91.7396 736.027 75.3203C741.275 58.901 750.331 46.375 763.195 37.7422C776.229 28.9401 794.426 24.5391 817.785 24.5391C835.897 24.5391 850.539 27.5859 861.711 33.6797C872.883 39.6042 881.431 48.1523 887.355 59.3242C893.28 70.4961 897.342 83.8685 899.543 99.4414C901.743 115.014 902.844 132.449 902.844 151.746V178.66H847.492V147.938C847.492 131.688 846.73 118.23 845.207 107.566C843.853 96.7331 841.06 88.6081 836.828 83.1914C832.596 77.7747 826.249 75.0664 817.785 75.0664C809.829 75.0664 803.397 76.9284 798.488 80.6523C793.579 84.3763 790.025 90.1315 787.824 97.918C785.624 105.535 784.523 115.438 784.523 127.625C784.523 138.458 785.793 147.514 788.332 154.793C791.04 162.072 795.103 169.012 800.52 175.613C806.105 182.046 812.876 189.493 820.832 197.957L853.84 233.25C870.598 251.023 883.97 270.236 893.957 290.887C904.113 311.538 909.191 335.066 909.191 361.473C909.191 387.033 906.568 408.784 901.32 426.727C896.073 444.669 887.017 458.38 874.152 467.859C861.288 477.339 843.26 482.078 820.07 482.078Z" fill="#1D1D1B"/>
<path d="M573.629 477V30.125H714.039V80.1445H632.535V223.348H709.723V272.859H632.535V426.98H715.816V477H573.629Z" fill="#1D1D1B"/>
<path d="M255.941 477L321.957 30.125H396.352L467.699 477H412.348L400.414 393.973H323.227L312.309 477H255.941ZM329.32 346.492H393.559L360.551 115.184H359.789L329.32 346.492Z" fill="#1D1D1B"/>
<path d="M43.2695 477V30.125H88.7188L188.504 319.324L183.426 193.133V30.125H235.984V477H193.328L94.3047 182.469L97.6055 296.98V477H43.2695Z" fill="#1D1D1B"/>
</svg>
