<svg xmlns="http://www.w3.org/2000/svg" version="1.1" xmlns:xlink="http://www.w3.org/1999/xlink" xmlns:svgjs="http://svgjs.dev/svgjs" width="1000" height="1000"><g clip-path="url(#SvgjsClipPath1116)"><rect width="1000" height="1000" fill="#410099"></rect><g transform="matrix(16,0,0,16,100,100)"><svg xmlns="http://www.w3.org/2000/svg" version="1.1" xmlns:xlink="http://www.w3.org/1999/xlink" xmlns:svgjs="http://svgjs.dev/svgjs" width="50" height="50"><svg width="50" height="50" viewBox="0 0 50 50" fill="none" xmlns="http://www.w3.org/2000/svg">
<path d="M0 0H50V50H0V0Z" fill="#410099"></path>
<path d="M24.8512 10.1299H43.9214V30.4216C43.9214 30.9485 43.8697 31.4302 43.7811 31.8592C43.685 32.2882 43.4487 32.7925 43.072 33.372C42.7914 33.9967 42.5033 34.486 42.2226 34.8472C41.942 35.2085 41.425 35.63 40.6716 36.1042C39.6819 36.9697 38.2195 37.6848 36.2918 38.2643C34.3568 38.8439 32.1484 39.1299 29.652 39.1299H5.92139V30.4216C5.92139 29.9926 5.9657 29.5335 6.06172 29.0518C6.15773 28.5701 6.34238 28.0959 6.63043 27.6142C7.05142 26.6056 7.90079 25.6723 9.17115 24.8068C9.73247 24.3777 10.3455 23.9788 11.0102 23.6176C11.6676 23.2563 12.5169 22.9326 13.5509 22.6466C15.198 22.0219 17.4137 21.7133 20.1908 21.7133H29.652C30.4054 21.7133 30.9593 21.6757 31.3138 21.608C31.6683 21.5327 32.2813 21.3671 33.1529 21.1037C34.0244 20.8402 34.4602 20.0876 34.4602 18.8382V15.8877H15.39C15.39 14.0136 16.1877 12.6739 17.7904 11.8535C18.3591 11.5675 19.1346 11.2513 20.1243 10.9202C21.114 10.5815 21.8452 10.3707 22.3105 10.2729L24.8512 10.1299ZM34.4602 30.4216V27.0422C33.6625 27.1852 32.8722 27.3056 32.0967 27.4034C31.3212 27.5013 30.5088 27.5464 29.6594 27.5464H20.1982C18.4108 27.5464 17.0887 27.8325 16.2394 28.412C15.7667 29.1797 15.486 29.8496 15.39 30.4291V33.3796H29.6594C31.5428 33.3796 32.7688 33.0409 33.3301 32.371C34.0835 31.7463 34.4602 31.099 34.4602 30.4291" fill="white"></path>
</svg></svg></g></g><defs><clipPath id="SvgjsClipPath1116"><rect width="1000" height="1000" x="0" y="0" rx="200" ry="200"></rect></clipPath></defs></svg>