<svg width="2182" height="2188" viewBox="0 0 2182 2188" fill="none" xmlns="http://www.w3.org/2000/svg">
<path fill-rule="evenodd" clip-rule="evenodd" d="M1810.77 832.451H2181.14L1823.86 1279.66L1636.08 1052.56L1810.77 832.451Z" fill="#D35B36"/>
<path fill-rule="evenodd" clip-rule="evenodd" d="M1016.75 0L0 1759.22L990.799 1759.24C797.459 1687.11 659.798 1500.78 659.798 1282.31C659.798 1001.21 887.677 773.348 1168.76 773.348C1328.14 773.348 1470.41 846.627 1563.73 961.332C1565.32 963.031 1571.99 962.344 1569.73 956.805L1016.75 0ZM1346.77 1759.24C1490.63 1707.24 1561.38 1611.18 1639.52 1506.97C1725.7 1619.63 1867.1 1745.69 2022.61 1752.99C2033.08 1752.99 2033.5 1759.22 2022.58 1759.22H1346.61L1346.77 1759.24Z" fill="#3B4890"/>
<path fill-rule="evenodd" clip-rule="evenodd" d="M1457.44 1282.31L1348.47 1420.94C1314.63 1460.91 1270.95 1510.82 1168.77 1510.82C1042.55 1510.82 940.217 1408.5 940.217 1282.31C940.217 1156.09 1042.54 1053.77 1168.77 1053.77C1270.96 1053.77 1314.63 1103.68 1348.47 1143.65L1457.44 1282.31ZM325.554 1954.45H241.938V1902.87H470.543V1954.45H386.914V2181.88H325.554V1954.45Z" fill="#3B4890"/>
<path fill-rule="evenodd" clip-rule="evenodd" d="M479.92 2097.39C481.087 2121.08 495.613 2140.5 526.495 2140.5C548.764 2140.5 560.203 2131.63 563.705 2117.6L624.572 2117.83C608.93 2167.03 572.005 2187.34 526.287 2187.34C462.593 2187.34 423.125 2143.59 423.125 2081.05C423.125 2020.48 464.94 1974.37 526.287 1974.37C595.066 1974.37 629.799 2035.27 625.908 2097.38H479.92V2097.39ZM565.832 2056.99C564.729 2040.04 546.377 2019.25 524.731 2019.25C495.289 2019.25 483.344 2046.6 482.553 2056.99H565.832ZM710.056 1981.61H748.511V2022.22H710.056V2117.02C710.056 2135.78 714.751 2140.48 733.505 2140.48C739.367 2140.48 744.841 2140.1 750.703 2138.91V2182.31C741.326 2183.85 729.212 2184.25 718.278 2184.25C684.272 2184.25 654.584 2176.42 654.584 2136.2V2022.23H624.455V1981.62H654.571V1919.3H710.056V1981.61ZM893.189 2026.19C890.97 2026.04 888.746 2025.96 886.522 2025.95C845.875 2025.95 831.816 2055.27 831.816 2090.83V2181.88H776.331V1979.86H829.092V2017.38H829.87C839.675 1984.15 855.395 1974.4 893.176 1974.4L893.189 2026.19ZM901.943 2045.03C905.069 1990.02 939.231 1974.39 987.725 1974.39C1041.87 1974.39 1076.43 1995.94 1076.43 2031.84V2136.95C1076.43 2155.32 1078.37 2173.68 1083.47 2181.89H1027.19C1025.1 2175.56 1023.79 2169 1023.29 2162.36C1005.7 2180.72 990.384 2185.61 965.768 2185.61C924.161 2185.61 888.481 2163.45 888.481 2126.79C888.481 2081.08 928.752 2066.04 954.406 2062.4C988.439 2057.54 1020.93 2058.2 1020.93 2038.87C1020.93 2017.56 993.38 2016.98 984.989 2016.98C972.862 2016.98 954.523 2022.14 953.057 2045.05L901.943 2045.03ZM1024.65 2081.06C1015.27 2089.27 995.079 2092.71 977.894 2095.84C960.709 2099.35 944.847 2103.03 944.847 2123.34C944.847 2133.1 953.226 2144.77 971.202 2144.77C1014.59 2144.77 1024.65 2113.89 1024.65 2101.76V2081.06ZM1173.58 1907.84H1299.4C1350.01 1907.84 1385.43 1947.92 1385.43 1993.23C1385.43 2042.24 1360.05 2086.81 1299.4 2086.81H1234.93V2181.88H1173.58V1907.84ZM1238.43 2039.13H1282.61C1294.77 2039.13 1327.34 2032.19 1327.34 1997.3C1327.34 1961.74 1301.96 1955.48 1282.61 1955.48H1238.43V2039.13ZM1594.84 1905.48H1650.34V2056.03L1718.1 1982.04H1789.84L1711.04 2061.53L1792.33 2181.88H1723.37L1670.51 2096.41L1650.34 2117.56V2181.88H1594.84V1905.48ZM1384.11 2045.03C1387.25 1990.02 1421.4 1974.39 1469.9 1974.39C1524.04 1974.39 1558.59 1995.94 1558.59 2031.84V2136.95C1558.59 2155.32 1560.56 2173.68 1565.63 2181.89H1509.37C1507.29 2175.56 1505.97 2169 1505.44 2162.36C1487.87 2180.72 1472.56 2185.61 1447.93 2185.61C1406.34 2185.61 1370.64 2163.45 1370.64 2126.79C1370.64 2081.08 1410.92 2066.04 1436.58 2062.4C1470.6 2057.54 1503.1 2058.2 1503.1 2038.87C1503.1 2017.56 1475.54 2016.98 1467.17 2016.98C1455.03 2016.98 1436.69 2022.14 1435.22 2045.05L1384.11 2045.03ZM1506.81 2081.06C1497.44 2089.27 1477.26 2092.71 1460.06 2095.84C1442.89 2099.35 1427.02 2103.03 1427.02 2123.34C1427.02 2133.1 1435.4 2144.77 1453.37 2144.77C1496.76 2144.77 1506.81 2113.89 1506.81 2101.76V2081.06Z" fill="#3B4890"/>
</svg>
