<svg width="65" height="65" viewBox="0 0 65 65" xmlns="http://www.w3.org/2000/svg"><path d="M32.4973 0C24.5919 0 16.8596 2.94413 10.9487 8.18994C5.10666 13.3724 1.24984 20.6052 0.259098 28.3557C-0.75213 36.2719 1.22004 44.4078 5.76591 50.9683C10.1814 57.3408 16.8522 62.0279 24.3609 63.9702C27.0166 64.6555 29.7579 65 32.4992 65H65V32.4972C64.9963 14.5791 50.4182 0 32.4992 0L32.4973 0ZM45.4012 52.9628C39.5983 56.432 32.5327 57.5866 26.0258 55.7486C20.4874 54.1862 15.6137 50.6034 12.4404 45.8082C9.1646 40.8622 7.82934 34.7784 8.71206 28.9143C9.57617 23.1862 12.554 17.8864 16.9639 14.1359C21.4614 10.311 27.2959 8.15643 33.1957 8.40037C45.0604 8.89199 51.7181 16.1713 55.6457 24.2086C46.6489 29.406 26.9477 40.8045 26.9477 40.8045L22.588 33.2682L43.1906 21.3538C40.684 18.9572 37.4119 17.4618 33.9574 17.1602C27.9831 16.635 22.1243 19.7058 19.1596 24.9199C16.2022 30.1136 16.5765 36.7374 20.0888 41.5736C23.6011 46.4041 29.7169 48.8026 35.5794 47.6611C41.5053 46.5047 46.405 41.7654 47.7402 35.3967H56.5526C56.5526 38.0317 53.694 48.0075 45.4012 52.9665V52.9628Z" fill="#ffffff"/></svg>