<svg width="400" height="111" viewBox="0 0 400 111" xmlns="http://www.w3.org/2000/svg"><path d="M63.8562 76.7065C61.6864 86.98 53.7248 94.6267 44.0923 96.4911C34.5664 98.3332 24.6255 94.4654 18.9178 86.6739C13.2101 78.8769 12.599 68.1915 17.404 59.8102C22.2258 51.401 31.7462 46.4479 41.4515 47.2938C47.0639 47.7836 52.3847 50.1989 56.4553 54.0612L22.9715 73.2782L30.0585 85.4384C30.0585 85.4384 62.0789 67.0507 76.6958 58.6637C70.3096 45.6966 59.4941 33.9538 40.2068 33.1635C30.6192 32.7684 21.1381 36.2467 13.8269 42.4186C6.6782 48.457 1.83955 57.0053 0.432244 66.2493C-1.00309 75.7103 1.16673 85.5275 6.48757 93.5026C11.6458 101.238 19.5682 107.021 28.5671 109.542C39.1415 112.508 50.6242 110.644 60.0548 105.045C73.5335 97.0476 78.176 80.9528 78.176 76.7065H63.8562Z M256.248 76.7065C254.078 86.98 246.116 94.6267 236.484 96.4911C226.958 98.3332 217.017 94.4654 211.309 86.6739C205.601 78.8769 204.99 68.1915 209.801 59.8102C214.623 51.401 224.143 46.4479 233.848 47.2938C239.461 47.7836 244.782 50.1989 248.852 54.0612L215.368 73.2782L222.455 85.4384C222.455 85.4384 254.47 67.0507 269.093 58.6637C262.707 45.6966 251.891 33.9538 232.609 33.1635C223.022 32.7684 213.541 36.2467 206.229 42.4186C199.064 48.4681 194.225 57.0164 192.818 66.2548C191.383 75.7158 193.552 85.533 198.879 93.5081C204.037 101.244 211.954 107.026 220.958 109.547C231.533 112.514 243.016 110.649 252.446 105.051C265.925 97.0532 270.567 80.9584 270.567 76.712H256.248V76.7065Z M178.907 0C170.312 0 158.23 9.95633 158.23 22.6786V111H172.308V47.1993H191.13V33.1525H172.308V22.2C172.65 17.5864 176.569 13.9077 181.285 13.9077H196.507V0H178.907Z M293.746 42.1348V33.1413H279.65V110.989H293.746V70.4622C293.746 58.8196 306.658 47.1825 319.733 47.1825V33.1413C307.712 33.1413 300.081 37.0926 293.746 42.1348Z M360.786 33.1524C351.249 33.1524 341.919 36.6808 334.787 42.9585C327.74 49.1638 323.086 57.829 321.892 67.1119C320.67 76.5896 323.052 86.3345 328.536 94.1927C333.862 101.823 341.914 107.438 350.969 109.764C354.17 110.583 357.478 111 360.786 111H400V72.0762C400 50.6163 382.406 33.158 360.786 33.158V33.1524ZM335.724 72.0762C335.724 62.5651 341.398 53.6884 350.044 49.5979C358.818 45.4517 369.488 46.8375 376.917 53.0428C382.529 57.7399 385.854 64.7745 385.854 72.0706V96.9531H360.786C346.971 96.9531 335.724 85.7891 335.724 72.0762C335.724 85.7891 335.724 58.3633 335.724 72.0762Z M138 72.961C127.14 68.6535 110.735 62.2311 100.575 58.3354C98.2314 57.4338 96.3644 55.486 96.3644 52.8703C96.3644 49.737 98.9211 47.1993 102.078 47.1993H146.125V33.1524H102.078C92.1144 33.1524 84.2649 42.5411 84.2649 52.9315C84.2649 61.3908 89.4624 68.6201 96.7793 71.4362C105.279 74.703 122.245 81.2255 130.762 84.5591C133.128 85.4885 134.771 87.8538 134.771 90.5307C134.771 94.0814 131.872 96.9531 128.301 96.9531H84.2537V110.994H130.532C141.224 110.994 149.892 102.14 149.892 91.2152C149.892 82.9953 145.065 75.7604 138 72.961Z" fill="#ffffff"/></svg>